<mxfile host="65bd71144e">
    <diagram id="HIP3nbAZw_EuaXWnEj3U" name="Page-1">
        <mxGraphModel dx="1152" dy="561" grid="1" gridSize="10" guides="1" tooltips="1" connect="1" arrows="1" fold="1" page="1" pageScale="1" pageWidth="850" pageHeight="1100" math="0" shadow="0">
            <root>
                <mxCell id="0"/>
                <mxCell id="1" parent="0"/>
                <mxCell id="7" value="http://ics2o.mths.ca" style="swimlane;whiteSpace=wrap;html=1;" parent="1" vertex="1">
                    <mxGeometry x="30" y="40" width="760" height="480" as="geometry"/>
                </mxCell>
                <mxCell id="8" value="&lt;font style=&quot;font-size: 24px;&quot;&gt;Volume of a Sphere, with a Query String, in JS&amp;nbsp;&lt;/font&gt;" style="text;html=1;align=center;verticalAlign=middle;resizable=0;points=[];autosize=1;strokeColor=none;fillColor=none;" vertex="1" parent="7">
                    <mxGeometry x="80" y="60" width="520" height="40" as="geometry"/>
                </mxCell>
                <mxCell id="9" value="&lt;font style=&quot;font-size: 24px;&quot;&gt;Formula:&amp;nbsp;&lt;div style=&quot;display: inline-block; position: relative; transition: color 0.05s ease-in-out; font-style: italic; color: rgb(31, 31, 31); font-family: XITSMath-Regular, Arial, sans-serif; text-align: start; background-color: rgb(255, 255, 255); margin-right: 10px; margin-top: 0px; margin-bottom: 0px;&quot; data-var=&quot;V&quot; class=&quot;lr-fy-ecl lr-fy-eq-elem&quot;&gt;V&lt;/div&gt;&lt;div style=&quot;display: inline-block; position: relative; transition: color 0.05s ease-in-out; color: rgb(31, 31, 31); font-family: XITSMath-Regular, Arial, sans-serif; text-align: start; background-color: rgb(255, 255, 255); margin-left: 0.2em; margin-right: 0.2em;&quot; class=&quot;lr-fy-eq-elem lr-fy-eq-add&quot;&gt;=&lt;/div&gt;&lt;div style=&quot;display: inline-block; position: relative; transition: color 0.05s ease-in-out; color: rgb(31, 31, 31); font-family: XITSMath-Regular, Arial, sans-serif; text-align: start; background-color: rgb(255, 255, 255); margin-left: 5px; vertical-align: middle; margin-top: 0px; margin-bottom: 0px;&quot; data-lr-op=&quot;imul&quot; class=&quot;lr-fy-eq-elem eiuJYe&quot;&gt;&lt;div style=&quot;display: inline-block; position: relative; transition: color 0.05s ease-in-out;&quot; class=&quot;lr-fy-eq-elem&quot; data-lr-op=&quot;imul&quot;&gt;&lt;div style=&quot;display: inline-block; position: relative; transition: color 0.05s ease-in-out; text-align: center; vertical-align: middle;&quot; class=&quot;lr-fy-eq-elem&quot; data-lr-op=&quot;div&quot;&gt;&lt;div style=&quot;display: inline-block; position: relative; transition: color 0.05s ease-in-out;&quot; class=&quot;lr-fy-ecv lr-fy-eq-elem&quot;&gt;4&lt;/div&gt;&lt;div style=&quot;width: 13.4908px; height: 1px; background-color: black; margin-top: 2px; margin-bottom: 2px;&quot; class=&quot;lr-fy-eq-add&quot;&gt;&lt;/div&gt;&lt;div style=&quot;display: inline-block; position: relative; transition: color 0.05s ease-in-out;&quot; class=&quot;lr-fy-ecv lr-fy-eq-elem&quot;&gt;3&lt;/div&gt;&lt;/div&gt;&lt;div style=&quot;display: inline-block; position: relative; transition: color 0.05s ease-in-out; margin-left: 0.2em;&quot; class=&quot;lr-fy-eq-elem lr-fy-eq-add&quot;&gt;&lt;/div&gt;&lt;div style=&quot;display: inline-block; position: relative; transition: color 0.05s ease-in-out; font-style: italic;&quot; class=&quot;lr-fy-ecl lr-fy-eq-elem&quot;&gt;π&lt;/div&gt;&lt;/div&gt;&lt;div style=&quot;display: inline-block; position: relative; transition: color 0.05s ease-in-out; margin-left: 0.2em;&quot; class=&quot;lr-fy-eq-elem lr-fy-eq-add&quot;&gt;&lt;/div&gt;&lt;div style=&quot;display: inline-block; position: relative; transition: color 0.05s ease-in-out;&quot; class=&quot;lr-fy-eq-elem&quot; data-lr-op=&quot;pow&quot;&gt;&lt;div style=&quot;display: inline-block; position: relative; transition: color 0.05s ease-in-out; margin: -4px; padding: 4px; font-style: italic; cursor: pointer;&quot; role=&quot;link&quot; data-var=&quot;r&quot; class=&quot;lr-fy-el lr-fy-eq-elem&quot;&gt;r&lt;/div&gt;&lt;div style=&quot;display: inline-block; position: relative; transition: color 0.05s ease-in-out; margin-left: 0.15em; vertical-align: top;&quot; class=&quot;lr-fy-ecv lr-fy-eq-elem&quot;&gt;3&lt;/div&gt;&lt;/div&gt;&lt;/div&gt;&lt;/font&gt;" style="text;html=1;align=center;verticalAlign=middle;resizable=0;points=[];autosize=1;strokeColor=none;fillColor=none;" vertex="1" parent="7">
                    <mxGeometry x="34" y="130" width="240" height="80" as="geometry"/>
                </mxCell>
                <mxCell id="10" value="&lt;font style=&quot;font-size: 24px;&quot;&gt;Radius = # cm&lt;/font&gt;" style="text;html=1;align=center;verticalAlign=middle;resizable=0;points=[];autosize=1;strokeColor=none;fillColor=none;" vertex="1" parent="7">
                    <mxGeometry x="37" y="250" width="180" height="40" as="geometry"/>
                </mxCell>
                <mxCell id="11" value="&lt;font style=&quot;font-size: 24px;&quot;&gt;The volume of the sphere is # cm&lt;span style=&quot;color: rgb(71, 71, 71); font-family: &amp;quot;Google Sans&amp;quot;, Arial, sans-serif; text-align: start; text-wrap-mode: wrap; background-color: rgb(255, 255, 255);&quot;&gt;²&lt;/span&gt;&lt;/font&gt;" style="text;html=1;align=center;verticalAlign=middle;resizable=0;points=[];autosize=1;strokeColor=none;fillColor=none;" vertex="1" parent="7">
                    <mxGeometry x="30" y="373" width="390" height="40" as="geometry"/>
                </mxCell>
                <mxCell id="12" value="" style="shape=image;verticalLabelPosition=bottom;labelBackgroundColor=default;verticalAlign=top;aspect=fixed;imageAspect=0;image=data:image/png,iVBORw0KGgoAAAANSUhEUgAAAN0AAAC6CAIAAAClV9+vAAAAAXNSR0IArs4c6QAAHPhJREFUeAHtnXlbGtm2xu8n3R4Th4S0ghMRAmjThkSPSDQ5HTu2qHGMiopJ9MYgGJI4pNGAtjZhLqAQlHkerduG53jtRAkiNUH5h09RtWvttd71A4qqvdf+H4T6oxQgngL/QzyXKI8oBRCKSwoCIipAcUnErFA+UVxSDBBRAYpLImaF8onikmKAiApQXBIxK5RPFJcUA0RUgOKSiFmhfKK4pBggogIUl0TMCuUTxSXFABEVoLgkYlYonyguKQaIqADFJRGzQvlEcZkvA+l0GoZhjUYjl8slEolYLO7t7RUIBFwul8lkNjQ01NfX19XV1dfXNzQ0MJlMLpcrEAh6e3vFYrFEIpHL5RqNBobhdDqdb5dl3I7i8tLkezye7e3tubm53t5eJpMJAKitreVwOCKRaHh4eH5+XiaTbWxsaDQarVZrNBotFgsEQRaLxWg0arVajUazsbEhk8nm5+eHh4dFIhGHw6mtrQUAMJnM3t7eubm57e1tj8dzqQdlfIDi8h/JdzqdCoWiv7+/qakJAMDj8QYHB1dWVvb3930+3z+aFvrC5/Pt7++vrKwMDg7yeDwAQFNTU39/v0KhcDqdhVottfMoLk8zure3NzY2dvfu3crKyq6uLqlUenBwkEwmMch2Mpk8ODiQSqVdXV2VlZV3794dGxvb29vDoGsid1HWXO7u7orFYhqN1tTUNDo6qlar8b34S6fTarV6dHS0qamJRqOJxeLd3V0i04Oeb+XIJQzDMzMzjV//Jicn9Xo9evoWbFmv109OTmadnJmZgWG4YFNkPLG8uFSpVEKhEADQ399Plo+i3d3d/v5+AIBQKFSpVGSErACfy4VLmUzGYrFaWlpevXoVDAYLUArfU4LB4KtXr1paWlgslkwmw9cZDHovfS6XlpbodDqfz19fX8dAULS7WF9f5/P5dDp9aWkJ7b5wtF/KXL59+5bBYAgEgp2dHRwlRqPrnZ0dgUBAp9Pfvn2Lhn3cbZYml1tbW2w2u729vbQvyFbernI4HDabvbW1hTtJxXWg1LiEIKinp4dOpysUiuIqRTRr4XDUaLZlTk4UCgWdTu/p6YEgiGhOFuxPSXEpkUgAAFNTU6lUqmBFyHKi1X7o8wWy3qZSqampKQCARCIhi/+5/SwRLvf39zkczsOHD00mU+6AS+NoIBiyQN/e0TSZTA8fPuRwOPv7+2QPsxS4nJ6eBgAsLy+TPRn5+2+G4EAwfGH75eVlAMD09PSFR8myk9xc2my2jo4OgUBgtVrJovj1/fT6Alb7YQ47VqtVIBB0dHTYbLYczYh8iMRcKpXKysrKmZkZIutbdN8ymROj2RqORH9oeWZmprKyUqlU/rAlARuQlcuJiQkajVbat4EuxMXt8cGHrgsPfb9TpVLRaLSJiYnvDxF8D/m4DIfDQqGwo6PD5co3PQTPQf7uJVMpncESi8XzP8XlcnV0dAiFwnD44uvR/E1h2ZJkXFqtVhaLNTAwgKVGxOnLdeR2utwF+DMwMMBisUh0FU4mLvf29m7dujU3N1dAYkrglHg8oTNYCh6tPDc3d+vWLbKMOCYNl1tbWwCAchhKc9lbyHF4dOz2XnY0n/0ymQwAQIqHluTg8v379wCAjY2NfNQvyTaRaMxgsqYzmWtGt7GxAQB4//79Ne2gfToJuFxbWwMAbG9vo60Fke3bYKfH6y+Kh9vb2wCAtbW1olhDyQjRuVQqlQAAtVqNUvykMBsMhc0WexFdVavVAAAi39okNJfZL53SGz15VcIgK+wPhK56Vu72Ozs7RL40Ii6XGo0GALC5uZlb35I/6vMHIZsDjTA3NzcBABqNBg3j17RJUC7NZnNNTY1cLr9meGQ//eTkxGSxhcIRlAKRy+U1NTVmsxkl+wWbJSKXfr+fyWQuLCwUHFXJnOjx+u0OdItwLCwsMJlMv784P6qKpTwRuezs7BwaGipWhOS1k06n9UYoGo2hHcLQ0FBnZyfavVzJPuG4HBkZIZpGVxK0iI2Pjj2HzuMiGsxhqrOzc2RkJEcDjA8Ri8vV1VU6nU6VOEMQJJFI6gyWeAKLGkkIgng8Hjqdvrq6ijF/l3VHIC6NRiNhfx5eJh96+w+dx0fHmJYgzN4AMRqN6AWVv2UCccnj8ajfOtnMRWNxvRFKpbCu4LqwsMDj8fKnB72WROFybGysu7sbvTjJZdnucLk9xSm3edXAu7u7x8bGrnpW0dsTgsudnZ2qqqoyHOd7YTrjiYTJbDs5ObnwKNo7XS5XVVUV7s/Y8OcylUo1NzdTt9DPA5fJ4ANl1ge5XN7c3IzvHHz8uRwfHxeJROezQm3jroBIJBofH8fRDZy51Gq1AACHA5XnvzjKSvauHQ4HAECr1eIVCM5c3r9/XyqV4hU81W8OBaRS6f3793M0QPUQnlyura21traiGh7xjbtcRxMvJGzeL+NTsz6ff+LFbFMrV6Z4RwTPW1tb8Ro+jBuXmUyGwWBQw9iy/D160s/i8deUHy2QldHCHhmbJAKXm5ubDAYjc+3JGwXEghuXUqmUeg5+lrBfHnSLR05/Z4RC4VfLKxaIKGVtOjs7cbnQwofLcDhcXV1dAmXHzsC6zkY4HGG0sNeUH69jBKVz9/f3q6ursa+JgA+Xs7Ozjx49QklK0pnV7P3JaGFbbcWcwVNEER49ejQ7O1tEg/mYwoHLaDRaXV2N4z2IfHTBss3Cy9fNLB5eD3h+GKlWq62uro5Gf1yp64em8m+AA5dSqVQoFObvYsm3fPSk//FTQle2EQqFGF9l4sBlfX19mc+7Pf9Oy2QyzSzey6U353cSbVutVtfX12PpFdZcvnv3rq2tDcsIqb6KokBbW9vfuSuKqXyMYM0ln8+nhmjkkxiitZHL5Xw+HzOvMOVSp9PV1tbicp8WM0FLtaNMJlNbW6vT6bAJEFMuh4aGnj9/jk1gBO/l5OQkkkctakJF8fz5c8zmqWLHZSaTqampMRgMhNIaL2dOy1E7SFbv2GAw1NTUYPN1hx2XGxsbHA4HLw4I1W8qldYbLdGrlKMmiP8cDgebao/YcdnX17e4uEgQffF1w3XsOXRhNDG8uJEuLi729fUV1+aF1jDiMpFIVFRUwPC3S3Rd6FNp74wnTstRJ7CaGF5cMWEYrqioSCQSxTX7vTWMuNzc3ORyud93X4Z7vk4Mv1Y5anxF43K5GIxOxIjLZ8+eYf/sH9/8Xdh7NBrTG6F0GuuJ4Rc6U9jO2dnZZ8+eFXZu/mdhxGVdXR1mt77yDx77lvbilaPG3vlsjzqdrq6uDu3eseDSZDLRaDS0IyG+/VAoYrKQdcHG8/LSaDS01y3GgsvXr18/fvz4fGDluQ3ZHH5/sARif/z48evXr1ENBAsuRSLRmzeEHi+DqsRZ4/5ACLKWyHTkN2/eoD3lHwsuaTQaASsl58niyQlycnKSyZxkMpl0OpNKp1OpdDKVSiZTiUQykUjG44lYPBGLxaOxeDQai8bisVg8Hk/EE4nTBslkMplKpVImi80fCKbTmUwmc/L1L08HCNjMbDajfWGGOpcwDFdVVRFK3Ewmk0ql4vFENBoLhSOBQMjrC7g9PtfRaR1UO+y02hxmyG40WXUGi95o0RshgwkymKxGs9VktpksNrPFbobsFitsscKQzWG1Oaz2Q5v90AY7bfZDq+0Qsjkgq+O0AQSbIbvBZNUbIaPZZjRbs9t6I/TVOGSy2CxW2GY/hA9dTpf76Njr8fp9/mAwFA5HorFYPJFMptNpoo1mr6qqQvVuNOpcfvz4EZfp8el0Oh5PhMNRvz947PEduo5tsNMM2b9CZjVZ7JDNYYOdjsMj55H72H1Kgz9wSsN/YUhdf3Gx7Lsxnc4YTFDkonLUJycnqVQ6kUhGY/FwOBII/vMd4nCdf4cYzTbI5oAPXa5jj9frDwbD0WgsmUzhguz9+/c/fkRxohzqXE5MTKBaty6TycRi8UAw9D18kNUBO1yuI4/H6w/gl8Vjt9fhPLr+N0YqlY7F4qFQxOcLHH21abUfmiw2ncHyD2R9gXAkmkymrt9jDgtjY2OoLmuOOpddXV1FHOecTmeisbg/EDo69todrmxWzJDdcXjk9vgCgVAkEkskkvjWQzufzkTyaznqOLoP7s4j6zryWO2HBiOkN0KQzXHoPPZ4/aFwJJEsZknsd+/edXV1nY+0uNuoc0mn0/V6fcFOp1LpYDDsOvbYYKfRfPrZoDdCVtuh68jt9wejsTg2w64K9t/pcruOMC1HfeZqMpkKhSOnA+oOXWaLXWew6AwWixV2OE/fw7HrjWbS6/V0Ov2sr6JvoMtlNBoFAFx1Vnw6nQmHo8duL2R16AwWg8kKf62fGwoV+U1fdDW/MRiLxXUGC76FJM9cymQy0WjM5w86j9z/FRZyHB75/cH41T/Ow+EwAAC9ybvocmmxWO7cuXMmTe6NSCTq9vjssFNnsJgsdofzyOcPFCBZ7l6wPJp9O2HZY/59pdOZUCjiOvJAttM3vxmyO11ufyCU/4XpnTt3LBZL/j1eqSW6XKpUqvb29twORSJR15HHDNnNEPxVmkLevrm7wOVoOBI1mq3EudLNIcLpxVIofHTstdoPdQYLfOjyB0I/XHWgvb1dpVLlMHudQ+hyubKyctkw0mg0dnTsMZlP7wUeu70X3ka5TmDXP9dkgf7Y3llTfvhz/68CrFnthz5foIAT8T0lnkh4fQHY4ToF1HEKaDqdudClvr6+lZWVCw9dfye6XL548WJ0dPQbL0OhiNV+aDRZj449RJ5LYDCaf/1tkNHCXl1TfhPCD18GgiELRO5B0KlUyh8I2b5eVh25vd/TOTo6+uLFix9KUVgDdLkcGBg4Xz8kEomeEmm2eknyQbL9WcNoYUPWKw8CskBwIFjkFcMLS/D1z4rF4g7nkc5gOXZ7z9/Dl0qlAwNola9Bl0uRSJRd2u3k5MRxeKQ3QmQhMpvOOemrAipaeX0Bq/3w+kAQykIsFrd//XIPhsJZx1ZXV9EbvYEul/fv39/c3Eyn03aH0waju14xGlns6fv1Sf/vV7KcyZwYzdYw2eaG5xljKBzRGSz+wOlXwebmJnpPmNHlksvlqlTbVvshxksd5qny980+q3e7Hz15Jh4Rj4z39P3aeJezvCL7vtmFe/yBgM0Oq3f3D7SFP0e40DKhdkajsSyaarUavTlb6HLJZDLXlB88XmKtuX5ZmjV7fzYw761vfso2WF1TMlrYOn1e63habfbn41OMFjajhf1scERvMF3WSwnsj8dPp3Tu7u4ymUyUwkGXy8bGRrlCGYvF04T8O/8MMx6Pt3J/zhY5z2r9+n9Xmlq5yXOPlXMEsfByKQtl9v/I2GSOxiVwyOlyq7Z3GhsbScklnU5/p1zPPpkl4P/za4Oub35itLD/0n45E/pJ/4Do8dOzl5lMJkcIosdPz3P5y4PuHI1L49A75TqDwTjTp7gb6H5e3r59u6Ojo7geo2RtbHKa0cI+G81wcnLCZLctvFzKs7vlFdl5LiULJV5ZxGw2s9lssnJJp9MBAEdHRRh9mCcfBTcbn5phtLDP7s9ZbXZGC3tv/yBPg5FINEs2o4U9ODzm9pC4ckE+If/222/Dw8Nk/R5nMpksFmt+fj6fUPFto/ywzmhhm8ynAxGi0djg8BijhQ07rnAb0u3xQlabyQK5jkhZeyh//c1mMwDg/fv3ZP3dw+Vy3717x+fzv38amb8K2LSMxeKdwl7uz4Le//w2OS35uLHVeJfD/Vmw9cc2Ng6QpZfPnz8DABQKBYnvE2XvqweDwa6urqdP//83BGFzYIcd0f9OxPF4vbFYjLCu4uKYUqnMQknu++pnzyFTqVRfX9+NGzfQng+PS7bKoVOdTvfvf/8bALC+vp6Nl8TPIb8Zt7G7u8vn82k02vLycjnksjRi1Ol0T548AQBMTU2dH3tP4nEbF45z29ra4vP5P/300+joKFVMi7Dsut1uhULx4MEDAMD4+Hgo9O3wKBKPc8sxLvjg4EAsFtfV1TU2Nk5NTf3555+EzVBZOQZB0PLycnd3NwCgo6NjdXU1GLy4phKJxwXnM4/i8+fPQ0NDTU1NTCZzYGBgdXUVgqCyQgH3YL1e7+bm5vj4+M8//1xRUdHT07O0tOR2u3M7RuJ5FFead7a7uyuRSDo7OwEADQ0Njx8/fvPmDcVobjgKPhoKhT59+jQ8PMzj8f6es9rc3DwwMLC2tuZ05jsckcTzzgqbpxsKhXZ2diYnJ+/duwcAuH37dk9Pz8zMzNbWlsNRIiXRCuap4BMjkYhWq11ZWfn99985HA4AoLq6ure3VyaTFTCtkdzzdBEEuWZdA5/P9+HDh5GRkQcPHtTV1QEAbt682d7eLhaLZTLZly9fqFuMl5HqdDo/ffokkUhEIlFjYyMA4F//+hebzX7y5Mn8/Pw1f3GSu64BgiDFrQMTCoW+fPmiUCjGx8e7uroYDAYAoKmpqbe3d35+/t27d3t7ezAMlxusHo9Hr9dvbW0tLy8PDw/z+fzq6uqbN29yudynT58uLi6qVKriftWQvg4M2nWzYrGYwWBQKpXT09P9/f0CgaC5ufnGjRu3b9++d++eUCgcGhpaXFz88OHDwcGB0+k8P57ysk8aYu4/D9/ExMSTJ0/4fH72nXnnzh0ulysSiUZGRl6/fv3582e0x8qQvm4WXnUGg8GgxWLZ2dmRyWTfIFtTU9PQ0MDhcB48eNDX1zc4ODg1NfXy5Uu5XL65ubm3t2cymVwu11XL1xRAcyKR8Hq9NptNq9Vub28rlcrl5eXZ2dmRkZFff/3178JUbW1tzc3Nt2/fBgCch+/ly5cfP37866+/XC7X+XvdBfhQ2CmkrzNIwLqssVjM7XZDEHRwcPDHH3+sra29fv16enp6aGjoP//5zzc0VFZW3rx5s6am5tatW3fu3Kmrq2MwGI2NjS0tLa2trWw2++85Lm1tbXw+v6OjQyAQ/PLLL+3t7Twe7969eywWi8lkNjc3NzQ00On0n376iUaj1dbWVlVV3bhxo6Ki4ubNm/X19SwWq6OjQyQSPXv2bHx8fGFh4e3bt+vr6xqN5u8lGR0ORyAQINrSKqSvy4ogCKnrWKfT6WQyGYvFIpFIMBj0+/0ej+f4+NjpdMIwbLPZLBaLyWTS6/Vfvnz566+/dDqdwWAwm81Wq9Vutx8eHrpcLrfb7fV6A4FAKBSKRqOJRCKVwqeeamGfjt+cVQp1rBEEoer+f5NXsr8skbr/1DopZAfxG/9LZJ0Ual2pb/JK9pclsq4UgiDUOnxkZ/HM/9JZhw9BEGrd0rO8kn2jpNYtpdZ5JjuOZ/6X1DrPiUSioqIC1ZWIzoSjNtBTAIbhioqKRALd5TUQBEG3rsF5gfr6+hYXS3y2//l4S3J7cXHxsgLQxY0XOy43NjY4HE5xvaesYawAh8PZ2NjAoFPsuMxkMjU1NQaDAYOoqC7QUODvh6I1NTXni42h0UvWJnZcIggyNDT0/Plz9IKhLKOqwPPnz4eGhlDt4sw4plzqdLra2lps3nBnEVIbRVEgk8nU1tZeczRx/p5gyiWCIHw+Xy6X5+8f1ZIgCsjlcj6fj5kzWHP59xqmbW1tmIVHdVQsBdra2oq4/uwPvcKaSwRB6uvr1Wr1Dz2jGhBHAbVaXV9fj6U/OHAplUqFQiGWQVJ9XVMBoVB4fh2ma1rL53QcuIxGo9XV1VqtNh//qDa4K6DVaqurq9FbOvfCAHHgEkGQ2dnZR48eXegQtZNoCjx69Gh2dhZjr/DhMhwOV1dX7+/vYxwt1d1VFdjf36+ursZgCt43juHDJYIgUqm0s7PzG2+ol0RToLOzE+Mry6wCuHGZyWQYDMbm5ibRMkH5c6bA5uYmg8HA5TkIblwiCLK2ttba2nqmArVBNAVaW1vX1tZw8QpPLhEEuX//Pi5fE7hoTa5OpVIpesuS/lAKnLnUarUAgOKWzvlhzFSDHyrgcDgAADjey8OZSwRBxsfH0VvG+ocJoBpcqIBIJBofH7/wEDY78ecylUo1NzdTgzmwyXc+vcjl8ubmZlzKHp25hz+XCILs7OxUVVW5XK4zt6gNvBRwuVxVVVU7Ozt4OZDtlxBcIggyNjbW3d2NrxZU7wiCdHd3j42N4S4FUbhEEITH4y0sLOCuSDk7sLCwwOPxiKAAgbg0Go0AAI1GQwRdytAHjUYDADAajUSInUBcIgiyurpKp9M9Hg8RpCkrHzweD51OX11dJUjUxOISQZCRkRHquTn2cHR2do6MjGDf72U9Eo5LBEE6Ozsxm3d3mS5ltX9oaIhonwVE5NLv9zOZTOo3EDbvjYWFBSaT6ff7sekuz16IyCWCIGazuaamhrrZnmcWC24ml8tramrMZnPBFlA6kaBcIgiS/XlIDYRDKfHZhe0JewOEuFwiCLKxsQEAwP3ZA3pk4Gh5Z2cHAIBNsaECwiQ0lwiCKJVKAAA1r7eA1OY4Ra1WAwCUSmWONvgeIjqX2eHDAIDt7W18lSqZ3re3twEAeA34zVNGEnCJIMj79++J/KWTp9ZEaJa9NHr//j0RnMnhAzm4RBBka2sLACCTyXIEQx3KrYBMJgMAbG1t5W5GhKOk4RJBkL29vVu3bs3NzRFBONL5MDc3d+vWrb29PVJ4TiYuEQSxWq0sFmtgYIAU4hLHyYGBARaLZbVaieNSbk9IxiWCIOFwWCgUdnR0UOOIc6c2e9TlcnV0dAiFQuxrE+Tj3mVtyMdlNpKJiQkajaZSqS4LjNqPIIhKpaLRaBMTE6RTg6xcZm9tVlZWzszMkE50bByemZmprKwk8k3KHDqQmEsEQWw2W3bVbxJdOeVIRrEOWa1WgUDQ0dFhs9mKZRNjO+TmMivW9PQ0AGB5eRlj7YjZ3fLyMgBgenqamO7l6VUpcIkgyP7+PofDefjwoclkyjPy0mtmMpkePnzI4XBKoFBeiXCZhUwikQAApqam8J37jD3xqVRqamoKACCRSLDvHY0eS4pLBEEgCOrp6aHT6QqFAg29CGhToVDQ6fSenh4IggjoXmEulRqXWRW2trbYbHZ7e3tp30hSqVTt7e1sNpsUjxavBGhpcpmV4O3btwwGQyAQlN4Izp2dHYFAwGAw3r59e6V8k6VxKXOZzcHS0hKdTufz+evr62TJSg4/19fX+Xw+nU5fWlrK0Yzsh0qfy2yGZDIZi8VqaWl59epVMBgkXdqCweCrV69aWlpYLFY5DKoqFy6zIKpUKqFQCADo7+/f3d0lBZ27u7v9/f0AAKFQWNqXy+fTUV5cZiOHYXhmZqbx69/k5KRerz+vCEG29Xr95ORk1smZmRkYhgniGDZulCOXZ8ru7u6KxWIajdbU1DQ6OqpWq9Pp9NlR7DfS6bRarR4dHW1qaqLRaGKxmCwf6kXXqqy5PFNzb29vbGzs7t27lZWVXV1dUqn04OAgmUyeNUBvI5lMHhwcSKXSrq6uysrKu3fvjo2NkWX0LnqyUFz+Q1un06lQKPr7+5uamgAAPB5vcHBwZWVlf3/f5/P9o2mhL3w+3/7+/srKyuDgII/HAwA0NTX19/crFAqn01mo1VI7j+Ly0ox6PJ7t7e25ubne3l4mkwkAqK2t5XA4IpFoeHh4fn5eJpNtbGxoNBqtVms0Gi0WCwRBFovFaDRqtVqNRrOxsSGTyebn54eHh0UiEYfDqa2tBQAwmcze3t65ubnt7W2qeN2FCaC4vFCWC3am02kYhjUajVwul0gkYrG4t7dXIBBwuVwmk9nQ0FBfX19XV1dfX9/Q0MBkMrlcrkAg6O3tFYvFEolELpdrNBoYhvG9hL0gMELuorgkZFrK3imKy7JHgJACUFwSMi1l7xTFZdkjQEgBKC4JmZayd4risuwRIKQAFJeETEvZO0VxWfYIEFIAiktCpqXsnaK4LHsECCnA/wHRRXGMIfMHPQAAAABJRU5ErkJggg==;" vertex="1" parent="7">
                    <mxGeometry x="460" y="147" width="181.79" height="153" as="geometry"/>
                </mxCell>
            </root>
        </mxGraphModel>
    </diagram>
</mxfile>